<svg xmlns="http://www.w3.org/2000/svg" width="10mm" height="10mm" viewBox="0 0 10 10"><defs><marker id="a" refX="0" refY="0" orient="auto" overflow="visible"><path d="M1.926 1.21L-1.352.005l3.278-1.206a2.05 2.05 0 000 2.411z" fill-rule="evenodd" stroke-width=".188" stroke-linejoin="round" stroke="#fcfcfc" fill="#f5f5f5"/></marker><marker id="b" refX="0" refY="0" orient="auto" overflow="visible"><path d="M1.926 1.21L-1.352.005l3.278-1.206a2.05 2.05 0 000 2.411z" fill="#f5f5f5" fill-rule="evenodd" stroke="#fcfcfc" stroke-width=".188" stroke-linejoin="round"/></marker><marker id="c" refX="0" refY="0" orient="auto" overflow="visible"><path d="M1.926 1.21L-1.352.005l3.278-1.206a2.05 2.05 0 000 2.411z" fill="#f5f5f5" fill-rule="evenodd" stroke="#fcfcfc" stroke-width=".188" stroke-linejoin="round"/></marker><marker id="d" refX="0" refY="0" orient="auto" overflow="visible"><path d="M1.926 1.21L-1.352.005l3.278-1.206a2.05 2.05 0 000 2.411z" fill="#f5f5f5" fill-rule="evenodd" stroke="#fcfcfc" stroke-width=".188" stroke-linejoin="round"/></marker></defs><g fill="#f5f5f5" stroke="#fcfcfc" stroke-linecap="round"><path d="M1.75 1.75L4 4" marker-start="url(#a)"/><path d="M8.25 1.75L6 4" marker-start="url(#b)"/><path d="M1.75 8.25L4 6" marker-start="url(#c)"/><path d="M8.25 8.25L6 6" marker-start="url(#d)"/></g></svg>