<svg xmlns="http://www.w3.org/2000/svg" viewBox="0 0 50 50" height="5cm" width="5cm"><path d="M20.237 44.859c-3.98-.723-7.244-2.505-10.444-5.7-3.56-3.556-5.386-7.644-5.731-12.833-.38-5.72 1.643-10.858 5.992-15.22 1.85-1.855 2.696-2.479 4.763-3.508 3.514-1.75 5.279-2.167 9.128-2.152 4.623.017 8.022 1.09 11.642 3.672 4.025 2.873 7.343 8.196 7.923 12.714.093.725.23 1.706.302 2.179l.133.86h4.68l-3.566 6.218c-1.961 3.42-3.647 6.217-3.745 6.217-.171 0-7.183-12.001-7.183-12.294 0-.078 1.083-.141 2.406-.141h2.406l-.181-1.39c-.1-.763-.457-2.194-.793-3.178-2.003-5.857-7.811-9.993-14.014-9.98-9.688.02-16.782 9.032-14.552 18.49 1.852 7.857 10.363 13.05 17.992 10.975 2.868-.78 2.575-.885 3.536 1.267.477 1.067.922 2.072.99 2.233.07.17-.63.533-1.678.867-3.51 1.12-6.543 1.333-10.006.704z" stroke="#fff"/></svg>